<svg width="44" height="37" viewBox="0 0 44 37" fill="none" xmlns="http://www.w3.org/2000/svg">
<path d="M20.96 0.279998H29.04V1.24L26.24 2.16V27H24.04L5.72 5.04V25.04L9.04 26.04V27H0.8V26.04L4 25.04V1.6L0.52 1.2V0.279998H7.08L24.04 20.8V2.16L20.96 1.24V0.279998ZM35.6741 27.12V1.6L32.1941 1.24V0.279998H43.2741V1.24L39.7941 1.6V24.88C39.7941 30.72 38.1807 34.4133 34.9541 35.96C33.7007 36.5467 32.2607 36.84 30.6341 36.84C29.0074 36.84 27.6607 36.56 26.5941 36C25.5274 35.44 24.9941 34.4933 24.9941 33.16C24.9941 32.6 25.2474 32.1067 25.7541 31.68C26.2341 31.28 26.7541 31.08 27.3141 31.08C27.8741 31.08 28.3274 31.1333 28.6741 31.24C28.5141 31.8 28.4341 32.32 28.4341 32.8C28.4341 34.5867 29.2874 35.48 30.9941 35.48C34.1141 35.48 35.6741 32.6933 35.6741 27.12Z" fill="white"/>
</svg>
