<svg width="901" height="802" viewBox="0 0 901 802" fill="none" xmlns="http://www.w3.org/2000/svg">
<g id="Pattern">
<g id="Vector">
<path d="M68.5 239L705 870L656.5 859.5H926.5V677.5L285 44.5L103.5 77.5L61.5 136.5L68.5 239Z" fill="#0072BC"/>
<path d="M324.5 139.5C324.5 217.372 257.79 290 175.5 290C93.2096 290 35 220.872 35 143C35 65.1279 93.7096 0 176 0C258.29 0 324.5 61.6279 324.5 139.5Z" fill="#0072BC"/>
</g>
<g id="Vector_2">
<path d="M30.8193 503.242L467.489 966H668V830.268L191.6 358.187L206 376.761L215.746 397.152L219.988 413.883L221.305 430.155L219.346 449.958L213.383 469.303L203.806 486.932L191.728 501.719L175.789 515.17L155.464 526.331L145.026 530.138L133.49 533.068L121.874 534.777L110.653 535.311L99.4309 534.777L88.9934 533.297L78.0066 530.659L67.5691 527.042L57.6809 522.501L47.2666 516.359L38.7479 510.085L30.8193 503.242Z" fill="#0090EE" fill-opacity="0.8"/>
<path d="M221.305 430.155C221.305 488.231 171.764 535.311 110.653 535.311C49.5409 535.311 0 488.231 0 430.155C0 372.08 49.5409 325 110.653 325C171.764 325 221.305 372.08 221.305 430.155Z" fill="#0090EE" fill-opacity="0.8"/>
</g>
<g id="Vector_3">
<path d="M465.818 278.247L944.978 754H1165V614.456L642.243 129.119L658.044 148.215L668.739 169.178L673.394 186.378L674.839 203.108L672.69 223.467L666.146 243.356L655.637 261.479L642.384 276.682L624.895 290.51L602.591 301.984L591.138 305.899L578.479 308.911L565.733 310.667L553.42 311.216L541.106 310.667L529.653 309.146L517.597 306.434L506.144 302.716L495.294 298.047L483.866 291.732L474.518 285.282L465.818 278.247Z" fill="#50BAFF" fill-opacity="0.8"/>
<path d="M674.839 203.108C674.839 262.815 620.478 311.216 553.42 311.216C486.361 311.216 432 262.815 432 203.108C432 143.402 486.361 95 553.42 95C620.478 95 674.839 143.402 674.839 203.108Z" fill="#50BAFF" fill-opacity="0.8"/>
</g>
<g id="Vector_4">
<path d="M338.715 100.92L890.731 642.803L960.956 642.363L1019.17 641.998L402.41 43.816L408.192 51.0407L412.125 58.9872L413.856 65.5168L414.42 71.8746L413.688 79.6207L411.36 87.1976L407.588 94.1127L402.813 99.9233L396.496 105.221L388.426 109.635L384.278 111.149L379.689 112.323L375.066 113.02L370.597 113.257L366.125 113.076L361.963 112.524L357.58 111.52L353.413 110.132L349.463 108.382L345.299 106.007L341.89 103.575L338.715 100.92Z" fill="#50BAFF" fill-opacity="0.2"/>
<path d="M414.42 71.8746C414.563 94.5768 394.942 113.104 370.597 113.257C346.251 113.409 326.4 95.1295 326.258 72.4273C326.115 49.7252 345.736 31.1977 370.081 31.0451C394.427 30.8924 414.278 49.1725 414.42 71.8746Z" fill="#50BAFF" fill-opacity="0.2"/>
</g>
<g id="Vector_5">
<path d="M47.3678 336.605L584.124 870.783L652.401 870.355L709 870L109.293 280.322L114.915 287.444L118.739 295.277L120.423 301.714L120.972 307.981L120.261 315.616L117.998 323.084L114.331 329.9L109.689 335.627L103.548 340.848L95.7022 345.198L91.6686 346.691L87.2074 347.848L82.7123 348.534L78.3671 348.767L74.0193 348.589L69.973 348.044L65.7111 347.054L61.6596 345.686L57.8186 343.96L53.77 341.619L50.4553 339.222L47.3678 336.605Z" fill="#50BAFF" fill-opacity="0.2"/>
<path d="M120.972 307.981C121.112 330.358 102.038 348.619 78.3671 348.767C54.6967 348.916 35.3943 330.895 35.254 308.518C35.1137 286.141 54.1887 267.88 77.8591 267.731C101.53 267.583 120.832 285.603 120.972 307.981Z" fill="#50BAFF" fill-opacity="0.2"/>
</g>
<g id="Vector_6">
<path d="M505.637 496.259L854.711 863H1015V755.43L634.165 381.301L645.676 396.021L653.467 412.181L656.859 425.44L657.912 438.337L656.345 454.031L651.578 469.362L643.923 483.333L634.268 495.052L621.526 505.712L605.278 514.557L596.934 517.574L587.712 519.897L578.426 521.25L569.456 521.674L560.485 521.25L552.141 520.078L543.359 517.987L535.015 515.121L527.11 511.522L518.785 506.654L511.975 501.682L505.637 496.259Z" fill="#50BAFF" fill-opacity="0.5"/>
<path d="M657.912 438.337C657.912 484.362 618.309 521.674 569.456 521.674C520.603 521.674 481 484.362 481 438.337C481 392.311 520.603 355 569.456 355C618.309 355 657.912 392.311 657.912 438.337Z" fill="#50BAFF" fill-opacity="0.5"/>
</g>
</g>
</svg>
